<svg xmlns="http://www.w3.org/2000/svg" width="8" height="16" viewBox="0 0 8 16">
  <path fill="#FFF" fill-rule="evenodd" d="M7.70769231,0 L5.78461538,0 C3.63076923,0 2.23076923,1.5483871 2.23076923,3.9458897 L2.23076923,5.76066597 L0.307692308,5.76066597 C0.138461538,5.76066597 0,5.91050989 0,6.09365245 L0,8.72424558 C0,8.90738814 0.138461538,9.05723205 0.307692308,9.05723205 L2.23076923,9.05723205 L2.23076923,15.6670135 C2.23076923,15.8501561 2.36923077,16 2.53846154,16 L5.06153846,16 C5.23076923,16 5.36923077,15.8501561 5.36923077,15.6670135 L5.36923077,9.04058273 L7.63076923,9.04058273 C7.8,9.04058273 7.93846154,8.89073881 7.93846154,8.70759625 L7.93846154,6.07700312 C7.93846154,5.9937565 7.90769231,5.91050989 7.84615385,5.84391259 C7.78461538,5.7773153 7.70769231,5.74401665 7.63076923,5.74401665 L5.35384615,5.74401665 L5.35384615,4.21227888 C5.35384615,3.47970864 5.52307692,3.09677419 6.4,3.09677419 L7.69230769,3.09677419 C7.86153846,3.09677419 8,2.94693028 8,2.76378772 L8,0.332986472 C8,0.149843913 7.87692308,0 7.70769231,0 Z"/>
</svg>
