<svg xmlns="http://www.w3.org/2000/svg" width="58" height="11" viewBox="0 0 58 11">
  <path fill="#FFF" fill-rule="evenodd" d="M715.373047,732.326172 L715.537109,732.472656 C715.109375,732.964844 714.646484,733.169922 713.943359,733.169922 C713.082031,733.169922 712.501953,732.871094 712.320312,731.869141 L712.109375,730.673828 C711.933594,729.671875 711.740234,728.96875 710.990234,728.96875 L710.210938,728.96875 L710.210938,731.728516 C710.210938,732.601562 710.351562,732.724609 711.113281,732.759766 L711.113281,733 C710.679688,732.976562 709.964844,732.964844 709.296875,732.964844 C708.529297,732.964844 707.808594,732.976562 707.404297,733 L707.404297,732.759766 C708.166016,732.724609 708.300781,732.601562 708.300781,731.728516 L708.300781,725.775391 C708.300781,724.902344 708.160156,724.779297 707.404297,724.744141 L707.404297,724.503906 C707.808594,724.527344 708.552734,724.539062 709.226562,724.539062 C710.011719,724.539062 710.808594,724.515625 711.113281,724.515625 C713.345703,724.515625 714.435547,725.283203 714.435547,726.601562 C714.435547,727.574219 713.84375,728.681641 711.740234,728.921875 L711.746094,728.921875 C713.199219,729.044922 713.837891,729.507812 714.048828,730.503906 L714.318359,731.740234 C714.453125,732.378906 714.587891,732.601562 714.886719,732.601562 C715.091797,732.601562 715.220703,732.507812 715.373047,732.326172 Z M710.955078,724.744141 C710.339844,724.744141 710.210938,724.949219 710.210938,725.775391 L710.210938,728.728516 L710.726562,728.728516 C712.144531,728.728516 712.443359,727.837891 712.443359,726.736328 C712.443359,725.476562 712.044922,724.744141 710.955078,724.744141 Z M719.123047,732.179688 C719.603516,732.179688 720.212891,732.015625 720.699219,731.21875 L720.916016,731.300781 C720.628906,732.203125 719.84375,733.169922 718.513672,733.169922 C716.896484,733.169922 715.748047,732.150391 715.748047,729.958984 C715.748047,727.732422 716.978516,726.625 718.683594,726.625 C720.083984,726.625 720.939453,727.410156 720.939453,729.291016 L717.582031,729.291016 C717.564453,729.466797 717.558594,729.666016 717.558594,729.859375 C717.558594,731.529297 718.361328,732.179688 719.123047,732.179688 Z M718.613281,726.882812 C718.074219,726.882812 717.646484,727.509766 717.546875,729.0625 L719.427734,729.0625 C719.451172,727.890625 719.199219,726.882812 718.613281,726.882812 Z M727.542969,723.607422 L727.542969,731.6875 C727.542969,732.402344 727.730469,732.742188 728.310547,732.742188 L728.310547,732.994141 C728.058594,732.970703 727.806641,732.958984 727.566406,732.958984 C726.898438,732.958984 726.318359,733.005859 725.814453,733.123047 L725.814453,732.109375 C725.539062,732.800781 725.035156,733.169922 724.255859,733.169922 C722.826172,733.169922 721.806641,732.15625 721.806641,729.871094 C721.806641,727.697266 722.949219,726.625 724.490234,726.625 C725.035156,726.625 725.492188,726.753906 725.814453,727.076172 L725.814453,725.048828 C725.814453,724.328125 725.626953,723.988281 725.046875,723.988281 L725.046875,723.736328 C725.298828,723.759766 725.550781,723.771484 725.791016,723.771484 C726.464844,723.771484 727.044922,723.724609 727.542969,723.607422 Z M724.753906,732.648438 C725.246094,732.648438 725.703125,732.273438 725.814453,731.640625 L725.814453,727.375 C725.597656,727.09375 725.28125,726.970703 724.941406,726.970703 C724.115234,726.970703 723.617188,727.914062 723.623047,729.894531 C723.617188,731.945312 724.0625,732.648438 724.753906,732.648438 Z M736.091797,724.333984 C737.146484,724.333984 737.767578,724.708984 738.294922,725.113281 C738.382812,725.183594 738.464844,725.21875 738.529297,725.21875 C738.699219,725.21875 738.792969,724.996094 738.839844,724.503906 L739.115234,724.503906 C739.080078,725.119141 739.068359,725.945312 739.068359,727.410156 L738.787109,727.410156 C738.658203,726.308594 738.505859,725.728516 737.884766,725.236328 C737.486328,724.849609 736.935547,724.644531 736.367188,724.644531 C734.644531,724.644531 733.976562,726.654297 733.976562,728.775391 C733.976562,730.925781 734.697266,732.876953 736.414062,732.876953 C736.941406,732.876953 737.521484,732.683594 737.908203,732.296875 C738.529297,731.816406 738.675781,731.148438 738.787109,729.976562 L739.068359,729.976562 C739.068359,731.5 739.080078,732.361328 739.115234,733 L738.839844,733 C738.792969,732.507812 738.716797,732.291016 738.546875,732.291016 C738.476562,732.291016 738.394531,732.326172 738.294922,732.390625 C737.708984,732.806641 737.111328,733.169922 736.080078,733.169922 C733.537109,733.169922 731.84375,731.570312 731.84375,728.822266 C731.84375,726.138672 733.595703,724.333984 736.091797,724.333984 Z M741.640625,723.695312 C742.302734,723.695312 742.730469,724.046875 742.730469,724.621094 C742.730469,725.201172 742.302734,725.552734 741.640625,725.552734 C740.966797,725.552734 740.544922,725.201172 740.544922,724.621094 C740.544922,724.046875 740.966797,723.695312 741.640625,723.695312 Z M742.583984,726.660156 L742.583984,731.886719 C742.583984,732.554688 742.789062,732.748047 743.351562,732.748047 L743.351562,733 C743.046875,732.988281 742.373047,732.953125 741.746094,732.953125 C741.125,732.953125 740.404297,732.988281 740.087891,733 L740.087891,732.748047 C740.644531,732.748047 740.855469,732.554688 740.855469,731.886719 L740.855469,728.101562 C740.855469,727.380859 740.667969,727.041016 740.087891,727.041016 L740.087891,726.789062 C740.339844,726.8125 740.591797,726.830078 740.832031,726.830078 C741.5,726.830078 742.080078,726.777344 742.583984,726.660156 Z M747.992188,726.625 C748.771484,726.625 749.087891,727.193359 749.087891,727.732422 C749.087891,728.324219 748.71875,728.740234 748.15625,728.740234 C747.59375,728.740234 747.259766,728.435547 747.259766,727.966797 C747.259766,727.527344 747.488281,727.240234 747.787109,727.041016 C747.740234,727.023438 747.6875,727.011719 747.628906,727.011719 C747.576172,727.011719 747.517578,727.023438 747.458984,727.041016 C746.820312,727.146484 746.369141,727.943359 746.369141,728.587891 L746.369141,731.763672 C746.369141,732.537109 746.738281,732.748047 747.494141,732.748047 L747.494141,733 C747.125,732.988281 746.345703,732.953125 745.589844,732.953125 C744.933594,732.953125 744.201172,732.988281 743.873047,733 L743.873047,732.748047 C744.429688,732.748047 744.640625,732.554688 744.640625,731.886719 L744.640625,728.101562 C744.640625,727.380859 744.453125,727.041016 743.873047,727.041016 L743.873047,726.789062 C744.125,726.8125 744.376953,726.830078 744.617188,726.830078 C745.285156,726.830078 745.865234,726.777344 746.369141,726.660156 L746.369141,727.779297 C746.65625,727.134766 747.236328,726.625 747.992188,726.625 Z M752.416016,726.625 C753.037109,726.625 753.576172,726.777344 753.921875,726.994141 C754.326172,727.240234 754.583984,727.638672 754.583984,728.113281 C754.583984,728.681641 754.185547,729.080078 753.634766,729.080078 C753.066406,729.080078 752.708984,728.728516 752.708984,728.189453 C752.708984,727.685547 753.072266,727.322266 753.5,727.205078 C753.376953,727.041016 753.095703,726.917969 752.779297,726.917969 C751.783203,726.917969 751.261719,728.130859 751.261719,729.759766 C751.261719,731.623047 752.058594,732.179688 752.849609,732.179688 C753.294922,732.179688 753.933594,732.003906 754.419922,731.201172 L754.630859,731.277344 C754.355469,732.173828 753.617188,733.169922 752.246094,733.169922 C750.681641,733.169922 749.451172,732.179688 749.451172,729.929688 C749.451172,727.761719 750.716797,726.625 752.416016,726.625 Z M757.695312,723.607422 L757.695312,731.886719 C757.695312,732.554688 757.90625,732.748047 758.462891,732.748047 L758.462891,733 C758.158203,732.988281 757.484375,732.953125 756.863281,732.953125 C756.236328,732.953125 755.521484,732.988281 755.199219,733 L755.199219,732.748047 C755.761719,732.748047 755.966797,732.554688 755.966797,731.886719 L755.966797,725.048828 C755.966797,724.328125 755.779297,723.988281 755.199219,723.988281 L755.199219,723.736328 C755.451172,723.759766 755.703125,723.771484 755.943359,723.771484 C756.611328,723.771484 757.197266,723.724609 757.695312,723.607422 Z M762.400391,732.179688 C762.880859,732.179688 763.490234,732.015625 763.976562,731.21875 L764.193359,731.300781 C763.90625,732.203125 763.121094,733.169922 761.791016,733.169922 C760.173828,733.169922 759.025391,732.150391 759.025391,729.958984 C759.025391,727.732422 760.255859,726.625 761.960938,726.625 C763.361328,726.625 764.216797,727.410156 764.216797,729.291016 L760.859375,729.291016 C760.841797,729.466797 760.835938,729.666016 760.835938,729.859375 C760.835938,731.529297 761.638672,732.179688 762.400391,732.179688 Z M761.890625,726.882812 C761.351562,726.882812 760.923828,727.509766 760.824219,729.0625 L762.705078,729.0625 C762.728516,727.890625 762.476562,726.882812 761.890625,726.882812 Z" transform="translate(-707 -723)"/>
</svg>
