<svg xmlns="http://www.w3.org/2000/svg" width="16" height="13" viewBox="0 0 16 13">
  <path fill="#FFF" fill-rule="evenodd" d="M5.06666667,12.253125 C11.0933333,12.253125 14.3466667,7.55459388 14.3466667,3.46232485 C14.3466667,3.31075933 14.3466667,3.20971565 14.3466667,3.05815013 C14.9866667,2.60345357 15.52,2.09823517 16,1.44145125 C15.4133333,1.69406045 14.7733333,1.84562597 14.1333333,1.94666965 C14.8266667,1.54249493 15.3066667,0.936232847 15.5733333,0.228927087 C14.9333333,0.582579967 14.24,0.835189167 13.4933333,0.986754687 C12.2666667,-0.276291312 10.1866667,-0.326813152 8.85333333,0.835189167 C8,1.59301677 7.62666667,2.70449725 7.89333333,3.81597773 C5.28,3.66441221 2.82666667,2.45188805 1.17333333,0.532058127 C0.32,1.94666965 0.746666667,3.76545589 2.18666667,4.674849 C1.65333333,4.674849 1.17333333,4.52328348 0.693333333,4.27067428 C0.693333333,4.27067428 0.693333333,4.32119612 0.693333333,4.32119612 C0.693333333,5.78632948 1.81333333,7.04937548 3.30666667,7.35250652 C2.82666667,7.4535502 2.34666667,7.50407204 1.81333333,7.40302836 C2.24,8.66607436 3.46666667,9.52494564 4.85333333,9.57546748 C3.68,10.4343388 2.24,10.8890353 0.8,10.8890353 C0.533333333,10.8890353 0.266666667,10.8890353 0,10.8385135 C1.54666667,11.7479066 3.30666667,12.253125 5.06666667,12.253125"/>
</svg>
